<svg width="250" height="285" viewBox="0 0 250 285" fill="none" xmlns="http://www.w3.org/2000/svg">
<path d="M210.289 193.101C210.328 193.101 210.328 193.101 210.367 193.101C210.367 193.062 210.328 193.062 210.289 193.101ZM210.289 193.101C210.328 193.101 210.328 193.101 210.367 193.101C210.367 193.062 210.328 193.062 210.289 193.101ZM210.289 193.101C210.328 193.101 210.328 193.101 210.367 193.101C210.367 193.062 210.328 193.062 210.289 193.101ZM210.289 193.101C210.328 193.101 210.328 193.101 210.367 193.101C210.367 193.062 210.328 193.062 210.289 193.101ZM210.289 193.101C210.328 193.101 210.328 193.101 210.367 193.101C210.367 193.062 210.328 193.062 210.289 193.101ZM210.289 193.101C210.328 193.101 210.328 193.101 210.367 193.101C210.367 193.062 210.328 193.062 210.289 193.101ZM210.289 193.101C210.328 193.101 210.328 193.101 210.367 193.101C210.367 193.062 210.328 193.062 210.289 193.101ZM210.289 193.101C210.328 193.101 210.328 193.101 210.367 193.101C210.367 193.062 210.328 193.062 210.289 193.101ZM210.289 193.101C210.328 193.101 210.328 193.101 210.367 193.101C210.367 193.062 210.328 193.062 210.289 193.101ZM210.289 193.101C210.328 193.101 210.328 193.101 210.367 193.101C210.367 193.062 210.328 193.062 210.289 193.101ZM210.289 193.101C210.328 193.101 210.328 193.101 210.367 193.101C210.367 193.062 210.328 193.062 210.289 193.101ZM210.289 193.101C210.328 193.101 210.328 193.101 210.367 193.101C210.367 193.062 210.328 193.062 210.289 193.101ZM210.289 193.101C210.328 193.101 210.328 193.101 210.367 193.101C210.367 193.062 210.328 193.062 210.289 193.101ZM210.289 193.101C210.328 193.101 210.328 193.101 210.367 193.101C210.367 193.062 210.328 193.062 210.289 193.101ZM210.289 193.101C210.328 193.101 210.328 193.101 210.367 193.101C210.367 193.062 210.328 193.062 210.289 193.101ZM210.289 193.101C210.328 193.101 210.328 193.101 210.367 193.101C210.367 193.062 210.328 193.062 210.289 193.101ZM210.289 193.101C210.328 193.101 210.328 193.101 210.367 193.101C210.367 193.062 210.328 193.062 210.289 193.101ZM210.289 193.101C210.328 193.101 210.328 193.101 210.367 193.101C210.367 193.062 210.328 193.062 210.289 193.101ZM210.289 193.101C210.328 193.101 210.328 193.101 210.367 193.101C210.367 193.062 210.328 193.062 210.289 193.101ZM210.289 193.101C210.328 193.101 210.328 193.101 210.367 193.101C210.367 193.062 210.328 193.062 210.289 193.101ZM210.289 193.101C210.328 193.101 210.328 193.101 210.367 193.101C210.367 193.062 210.328 193.062 210.289 193.101ZM210.289 193.101C210.328 193.101 210.328 193.101 210.367 193.101C210.367 193.062 210.328 193.062 210.289 193.101ZM210.289 193.101C210.328 193.101 210.328 193.101 210.367 193.101C210.367 193.062 210.328 193.062 210.289 193.101ZM210.289 193.101C210.328 193.101 210.328 193.101 210.367 193.101C210.367 193.062 210.328 193.062 210.289 193.101ZM210.289 193.101C210.328 193.101 210.328 193.101 210.367 193.101C210.367 193.062 210.328 193.062 210.289 193.101ZM242.152 193.965C241.328 193.494 240.464 193.101 239.601 192.827L239.483 91.5085C242.976 90.606 246.154 88.33 248.116 84.9161C252.001 78.2061 249.686 69.5732 242.936 65.6884C236.933 62.2353 229.438 63.7264 225.161 68.8277L138.322 18.8357C140.598 12.518 138.126 5.33703 132.122 1.88389C125.373 -2.00088 116.779 0.314287 112.894 7.0636C110.697 10.8699 110.501 15.304 111.953 19.1103L25.1141 69.377C24.4078 68.7099 23.5837 68.1213 22.6812 67.6112C15.9319 63.7264 7.33828 66.0416 3.4535 72.7909C-0.431276 79.5402 1.88389 88.1338 8.63321 92.0186C9.53573 92.5287 10.4775 92.9211 11.4193 93.2351L11.537 193.141C7.61297 193.886 4.04211 196.241 1.8839 199.968C-2.00088 206.718 0.314286 215.311 7.0636 219.196C12.8711 222.571 20.1306 221.237 24.4862 216.488L63.0201 238.698C62.8239 241.367 64.0796 244.074 66.591 245.487C69.0631 246.9 72.0454 246.664 74.2428 245.134L111.482 266.559C109.52 272.72 112.07 279.626 117.878 282.961C124.627 286.846 133.221 284.531 137.106 277.782C138.989 274.486 139.421 270.718 138.518 267.305L225.867 216.724C226.573 217.352 227.319 217.901 228.143 218.333C234.892 222.218 243.486 219.902 247.371 213.153C251.216 206.443 248.901 197.81 242.152 193.965ZM228.496 89.8212L199.223 140.676L185.175 116.426C185.724 115.916 186.195 115.367 186.587 114.739C187.686 112.855 187.765 110.658 187.058 108.735L224.964 86.7604C225.945 87.9376 227.123 88.9579 228.496 89.8212ZM185.999 106.694C185.45 106.027 184.782 105.4 183.958 104.929C182.153 103.869 180.074 103.751 178.229 104.34L165.28 81.9731C165.555 81.6984 165.79 81.4238 166.026 81.0706C166.143 80.7959 166.3 80.5605 166.379 80.2858L222.061 80.2073C222.335 81.8554 222.924 83.425 223.748 84.8769L185.999 106.694ZM134.516 24.5255L222.139 74.9491C221.943 75.9301 221.825 76.9111 221.825 77.8921L166.418 77.9706C166.143 76.9111 165.476 75.9694 164.456 75.3808C163.436 74.7922 162.259 74.6744 161.199 74.9884L132.75 25.8597C133.378 25.4672 133.966 25.0356 134.516 24.5255ZM130.749 26.9584L159.276 76.2048C159.08 76.4403 158.923 76.6757 158.766 76.9111C158.57 77.2643 158.452 77.6567 158.335 78.0099L126.55 78.0491L126.511 28.0963C127.963 27.9394 129.415 27.547 130.749 26.9584ZM18.3648 193.572L18.2471 93.6275C19.2673 93.4313 20.2875 93.1173 21.2293 92.7249L50.424 143.149L20.7977 194.632C20.0129 194.2 19.1888 193.847 18.3648 193.572ZM22.7204 195.887L51.7582 145.425L67.2581 172.186C66.9834 172.461 66.7479 172.736 66.5517 173.089C66.0024 174.07 65.8847 175.129 66.1201 176.15L25.9381 199.419C25.0748 198.085 23.9761 196.868 22.7204 195.887ZM67.2188 178.112C67.4935 178.347 67.7289 178.582 68.0821 178.779C69.1024 179.367 70.2796 179.446 71.2998 179.171L86.7604 205.815L28.1356 205.894C28.0179 204.363 27.6255 202.833 26.9976 201.42L67.2188 178.112ZM115.013 260.712L77.2643 238.973C77.1858 236.579 75.8909 234.304 73.6934 233.048C71.4568 231.753 68.8669 231.831 66.7479 232.93L27.6647 210.445C27.8609 209.7 27.9786 208.954 28.0571 208.17L88.0161 208.091L117.368 258.789C116.544 259.339 115.759 259.967 115.013 260.712ZM119.448 257.769L90.6844 208.091L124.431 208.052L124.509 256.67C122.744 256.749 121.056 257.102 119.448 257.769ZM126.785 256.788L126.707 208.052L155.078 208.013C155.352 209.778 156.294 211.427 157.824 212.564L131.455 258.358C130.003 257.534 128.394 257.024 126.785 256.788ZM135.261 261.262C134.712 260.673 134.084 260.084 133.417 259.574L159.865 213.624C163.043 214.683 166.614 213.428 168.341 210.406C168.772 209.621 169.047 208.797 169.204 207.934L221.197 207.856C221.354 208.915 221.59 209.975 221.943 210.995L135.261 261.262ZM229.673 193.219L222.728 181.251C222.414 182.036 221.982 182.86 221.472 183.644L227.633 194.239C226.063 195.22 224.65 196.554 223.552 198.163L212.878 192.042L212.486 191.885L211.74 192.317L211.466 192.434H211.427C211.27 192.434 211.113 192.748 210.956 192.827C210.799 192.905 210.642 193.18 210.485 193.219L222.414 200.125C221.59 201.891 221.158 203.775 221.08 205.619L175.129 205.697C176.189 205.697 176.856 205.737 176.856 205.737L126.472 205.776L126.158 197.81V197.732C125.765 197.496 125.177 197.222 124.627 196.947C124.509 196.908 124.235 196.829 124.117 196.751C124.078 196.711 123.803 196.711 123.803 196.672V197.653L124.117 205.737L89.1933 205.776L73.1441 177.915C73.3403 177.68 73.5365 177.445 73.6934 177.209C74.2821 176.228 74.3998 175.09 74.1251 174.07L87.0744 166.575L87.1136 166.536L86.7604 166.065L85.6617 164.613L72.9479 172.029C72.7124 171.833 72.477 171.637 72.1631 171.48C71.2606 170.931 70.2011 170.813 69.2201 171.048L53.1316 143.07L66.7872 119.722C66.7479 118.506 66.7087 117.329 66.7479 116.112V115.68C66.7479 115.406 66.7479 115.131 66.7479 114.856L51.7974 140.873L23.309 91.6655C24.8394 90.6844 26.2128 89.3503 27.2723 87.7807L67.0619 110.579C67.1796 109.794 67.2973 109.01 67.4935 108.225L28.371 85.8187C29.1951 84.0921 29.6267 82.0908 29.7052 80.2858L58.9784 80.1681H67.9644L68.553 77.8137H51.2088L29.5875 77.9706C29.4698 76.9111 29.2343 75.9694 28.8811 74.9884L41.5557 67.7289L54.6227 60.1556L82.7187 43.9494L84.8377 42.7329L115.877 24.7217C116.465 25.2318 117.093 25.6242 117.76 26.0166L96.649 63.0201C96.6882 63.2163 96.7274 63.4125 96.7667 63.5695C96.9629 64.629 97.1198 65.6884 97.1591 66.7087L119.84 26.9976C121.253 27.547 122.704 27.9786 124.196 28.0571L124.274 77.9314L104.772 77.8529C105.243 78.5985 105.674 79.3833 106.067 80.1681H124.156L123.803 129.65V132.083C124.588 133.652 125.451 135.222 126.275 136.752L126.393 80.2858L158.335 80.2466C158.609 81.1883 159.316 82.0516 160.257 82.5617C161.199 83.1111 162.259 83.2288 163.24 82.9934L176.15 105.282C175.365 105.831 174.698 106.577 174.188 107.479C173.05 109.441 172.971 111.756 173.756 113.718L128.355 140.009C128.747 140.637 129.14 141.304 129.532 141.932L174.933 115.641C175.443 116.269 176.071 116.818 176.817 117.25C178.896 118.427 181.251 118.467 183.291 117.564L197.928 142.835L181.055 172.147C181.839 172.226 182.703 172.265 183.605 172.265L199.262 145.111L213.153 169.126C213.742 169.047 214.37 169.008 214.919 169.008C215.194 169.008 215.468 169.008 215.743 169.047L200.557 142.874L230.536 90.8022C231.243 91.0768 231.91 91.3123 232.616 91.5085L232.734 192.238C231.674 192.434 230.654 192.787 229.673 193.219ZM210.328 193.101L210.367 193.062C210.367 193.062 210.328 193.062 210.328 193.101ZM210.289 193.101C210.328 193.101 210.328 193.101 210.367 193.101C210.367 193.062 210.328 193.062 210.289 193.101ZM210.289 193.101C210.328 193.101 210.328 193.101 210.367 193.101C210.367 193.062 210.328 193.062 210.289 193.101ZM210.289 193.101C210.328 193.101 210.328 193.101 210.367 193.101C210.367 193.062 210.328 193.062 210.289 193.101ZM210.289 193.101C210.328 193.101 210.328 193.101 210.367 193.101C210.367 193.062 210.328 193.062 210.289 193.101ZM210.289 193.101C210.328 193.101 210.328 193.101 210.367 193.101C210.367 193.062 210.328 193.062 210.289 193.101ZM210.289 193.101C210.328 193.101 210.328 193.101 210.367 193.101C210.367 193.062 210.328 193.062 210.289 193.101ZM210.289 193.101C210.328 193.101 210.328 193.101 210.367 193.101C210.367 193.062 210.328 193.062 210.289 193.101ZM210.289 193.101C210.328 193.101 210.328 193.101 210.367 193.101C210.367 193.062 210.328 193.062 210.289 193.101ZM210.289 193.101C210.328 193.101 210.328 193.101 210.367 193.101C210.367 193.062 210.328 193.062 210.289 193.101ZM210.289 193.101C210.328 193.101 210.328 193.101 210.367 193.101C210.367 193.062 210.328 193.062 210.289 193.101ZM210.289 193.101C210.328 193.101 210.328 193.101 210.367 193.101C210.367 193.062 210.328 193.062 210.289 193.101ZM210.289 193.101C210.328 193.101 210.328 193.101 210.367 193.101C210.367 193.062 210.328 193.062 210.289 193.101ZM210.289 193.101C210.328 193.101 210.328 193.101 210.367 193.101C210.367 193.062 210.328 193.062 210.289 193.101ZM210.289 193.101C210.328 193.101 210.328 193.101 210.367 193.101C210.367 193.062 210.328 193.062 210.289 193.101ZM210.289 193.101C210.328 193.101 210.328 193.101 210.367 193.101C210.367 193.062 210.328 193.062 210.289 193.101ZM210.289 193.101C210.328 193.101 210.328 193.101 210.367 193.101C210.367 193.062 210.328 193.062 210.289 193.101ZM210.289 193.101C210.328 193.101 210.328 193.101 210.367 193.101C210.367 193.062 210.328 193.062 210.289 193.101ZM210.289 193.101C210.328 193.101 210.328 193.101 210.367 193.101C210.367 193.062 210.328 193.062 210.289 193.101ZM210.289 193.101C210.328 193.101 210.328 193.101 210.367 193.101C210.367 193.062 210.328 193.062 210.289 193.101ZM210.289 193.101C210.328 193.101 210.328 193.101 210.367 193.101C210.367 193.062 210.328 193.062 210.289 193.101ZM210.289 193.101C210.328 193.101 210.328 193.101 210.367 193.101C210.367 193.062 210.328 193.062 210.289 193.101ZM210.289 193.101C210.328 193.101 210.328 193.101 210.367 193.101C210.367 193.062 210.328 193.062 210.289 193.101ZM210.289 193.101C210.328 193.101 210.328 193.101 210.367 193.101C210.367 193.062 210.328 193.062 210.289 193.101ZM210.289 193.101C210.328 193.101 210.328 193.101 210.367 193.101C210.367 193.062 210.328 193.062 210.289 193.101Z" fill="black"/>
<path d="M113.13 115.68L102.888 119.643C102.535 119.016 102.025 118.506 101.318 118.152C99.9449 117.446 98.3361 117.603 97.1981 118.466L89.821 111.207C90.3311 110.03 89.8602 108.656 88.683 108.028C88.6045 107.989 88.5653 107.989 88.4868 107.95L88.6438 106.773C89.5071 106.773 90.4096 106.89 91.2729 106.851C93.1564 106.773 95.0399 106.263 96.688 105.36C96.7273 105.321 96.7665 105.321 96.845 105.282C97.826 104.732 98.7285 104.065 99.5525 103.32C99.7095 103.163 99.9057 103.006 100.063 102.809C100.494 102.378 100.965 101.868 101.554 101.122C101.828 100.769 102.299 100.651 102.692 100.847C106.773 102.652 110.618 106.812 112.816 114.817C112.973 115.092 113.051 115.366 113.13 115.68Z" fill="#FF0000"/>
<path d="M85.3087 109.088C84.6809 110.265 85.1125 111.717 86.2897 112.384L81.6594 128.708C81.5024 128.865 81.3847 129.022 81.267 129.218C81.0708 129.571 81.0315 129.925 81.0315 130.278L75.1847 132.436C74.5176 130.16 74.0075 127.845 73.6544 125.451C73.1442 122.116 72.948 118.78 72.9873 115.445C73.0658 111.992 72.9873 107.636 75.7341 105.007C76.0088 104.732 76.3227 104.497 76.6759 104.379C77.5391 104.026 78.6379 104.183 79.5404 104.262C80.953 104.379 82.3264 104.693 83.6606 105.125C84.3277 105.36 84.9948 105.596 85.6226 105.87C85.8973 105.988 86.2112 106.106 86.4859 106.224C86.7213 106.302 87.1922 106.655 87.4277 106.655L87.5062 106.694L87.3492 107.793C86.5251 107.872 85.7403 108.303 85.3087 109.088Z" fill="#FF0000"/>
<path d="M96.1391 119.761C95.629 120.742 95.5505 121.841 95.9037 122.822L84.4848 128.786C84.3671 128.629 84.1709 128.512 83.9747 128.394C83.6607 128.237 83.3076 128.159 82.9937 128.159L87.3885 112.698C88.0556 112.737 88.6835 112.541 89.1936 112.109L96.453 119.29C96.3353 119.447 96.2176 119.604 96.1391 119.761Z" fill="#FF0000"/>
<path d="M110.815 141.344C110.855 141.344 110.855 141.344 110.815 141.344C110.895 141.384 110.855 141.344 110.815 141.344Z" fill="#FF0000"/>
<path d="M127.845 148.996L119.212 156.294C119.173 156.294 119.134 156.177 119.055 156.137C118.663 155.941 118.192 155.784 117.8 155.823L117.721 155.745L111.05 144.797C111.286 144.601 111.482 144.365 111.639 144.051C112.227 142.953 111.757 141.618 110.736 140.991L113.993 133.221C114.778 133.456 114.346 133.339 114.425 133.378L114.582 133.417C116.073 133.888 117.329 133.26 117.957 132.044C118.035 131.848 118.231 131.691 118.27 131.534C118.31 131.573 118.31 131.573 118.31 131.573C120.664 137.184 123.607 143.031 127.61 148.682L127.727 148.76C127.727 148.799 127.767 148.799 127.767 148.839L127.727 148.878C127.806 148.878 127.845 148.956 127.845 148.996Z" fill="#FF0000"/>
<path d="M142.05 196.672C134.162 194.632 126.04 191.296 117.917 186.195L115.209 172.971C115.366 172.814 115.523 172.657 115.641 172.422C115.641 172.382 115.641 172.422 115.641 172.382L134.869 173.324C135.104 173.873 135.536 174.384 136.124 174.698C136.517 174.894 136.949 175.011 137.38 175.011L142.05 196.672Z" fill="#FF0000"/>
<path d="M165.673 185.135C164.77 185.488 163.985 186.116 163.397 186.98L139.617 173.913C139.656 173.913 139.813 173.638 139.853 173.559C140.167 172.971 140.245 172.343 140.088 171.754L148.093 168.105L148.368 168.262C151.939 170.145 157.275 172.657 161.631 173.913L165.673 185.135Z" fill="#FF0000"/>
<path d="M211.897 185.567C211.466 185.881 210.877 186.273 210.171 186.705L209.111 182.545C209.15 182.506 209.229 182.467 209.268 182.388C209.66 181.643 209.386 180.74 208.64 180.387C208.366 180.23 208.091 180.191 207.816 180.23H207.777L205.815 176.502C208.405 176.032 211.112 175.521 213.31 175.09C219.784 173.795 219.745 179.916 211.897 185.567Z" fill="#FF0000"/>
<path d="M209.151 187.294C209.151 187.294 209.151 187.333 209.151 187.294C206.718 188.706 203.186 190.511 198.752 192.277L192.277 186.784C192.434 186.627 192.591 186.47 192.709 186.234C192.866 185.92 192.944 185.646 192.944 185.253L206.561 182.781C206.561 182.82 206.678 182.624 206.443 183.134L206.875 182.82C206.953 182.938 207.189 182.86 207.306 182.938C207.581 183.056 207.777 183.173 208.052 183.173H208.091L209.151 187.294Z" fill="#FF0000"/>
<path d="M206.796 180.741C206.718 180.819 206.678 180.858 206.639 180.976C206.561 181.094 206.561 181.172 206.521 181.329C206.521 181.368 206.521 181.408 206.482 181.408H206.443C206.443 181.408 206.443 181.408 206.443 181.368L192.63 184.037L192.395 184.076L192.513 183.841L196.084 177.758C198.909 177.562 201.734 177.17 204.559 176.66H204.599L206.796 180.741Z" fill="#FF0000"/>
<path d="M197.575 192.787C197.535 192.826 197.496 192.827 197.418 192.827C189.491 195.887 178.936 198.713 166.85 199.419L168.027 194.396C169.596 194.239 171.009 193.297 171.794 191.845C171.951 191.532 172.069 191.218 172.147 190.904L188.863 186.391C189.06 186.666 189.334 186.901 189.648 187.058C190.119 187.294 190.668 187.372 191.179 187.254L197.575 192.787Z" fill="#FF0000"/>
<path d="M194.671 177.994L191.649 183.134C190.551 182.624 189.256 183.056 188.706 184.115C188.471 184.507 188.432 184.939 188.471 185.371L172.343 189.726C172.382 187.961 171.441 186.234 169.753 185.332C168.812 184.821 167.752 184.664 166.771 184.821L162.965 174.227C167.948 175.561 173.207 176.895 179.132 177.601C184.312 178.19 189.687 177.954 194.671 177.994Z" fill="#FF0000"/>
<path d="M166.85 194.435L165.712 199.38H165.673C158.61 199.576 151.115 198.87 143.306 196.986L138.519 174.815C138.558 174.776 138.636 174.776 138.676 174.737L162.926 188C162.141 190.237 163.083 192.787 165.241 193.925C165.751 194.161 166.301 194.357 166.85 194.435Z" fill="#FF0000"/>
<path d="M147.465 167.124L139.617 170.695C139.382 170.381 139.068 170.107 138.715 169.91C137.694 169.361 136.439 169.557 135.654 170.303L120.193 159.08C120.507 158.374 120.389 157.589 119.997 157L128.512 149.702L128.473 149.78C133.103 156.059 139.539 162.259 147.465 167.124Z" fill="#FF0000"/>
<path d="M134.869 171.323C134.751 171.598 134.712 171.873 134.673 172.187L115.838 171.206C115.759 170.578 115.367 169.989 114.739 169.675C114.15 169.361 113.483 169.361 112.934 169.597L104.811 157.942C104.89 157.864 104.929 157.785 104.968 157.707C105.439 156.844 105.086 155.784 104.222 155.313C103.752 155.039 103.202 155.039 102.731 155.235L96.5707 148.682L96.4922 148.603C96.8453 148.289 97.1593 147.858 97.4339 147.387C97.8264 146.641 97.9833 145.856 97.9441 145.111L98.101 145.072L107.362 143.934C107.558 144.404 107.911 144.836 108.421 145.072C108.971 145.346 109.559 145.425 110.109 145.268L116.701 156.216C116.348 156.412 116.073 156.726 115.877 157.118C115.288 158.256 115.72 159.669 116.858 160.258C117.721 160.689 118.702 160.611 119.408 160.061L134.869 171.323Z" fill="#FF0000"/>
<path d="M109.952 140.912C109.873 140.912 109.795 140.912 109.755 140.873C109.795 140.912 109.873 140.912 109.952 140.912Z" fill="#FF0000"/>
<path d="M116.583 185.292C108.382 179.956 100.259 172.775 92.3721 163.357L93.0784 150.094H93.1176C94.0594 150.133 95.1189 149.976 95.9429 149.544L102.221 156.137C101.437 157 101.907 158.02 102.771 158.452C103.202 158.687 103.595 158.687 104.026 158.53L112.149 170.342C112.11 170.42 112.071 170.459 112.031 170.499C111.521 171.48 111.874 172.735 112.895 173.246C113.287 173.442 113.719 173.52 114.15 173.442L116.583 185.292Z" fill="#FF0000"/>
<path d="M91.9407 149.819L91.2736 161.984C84.7205 153.233 78.7167 143.973 75.499 133.574L81.4243 131.376C81.5813 131.612 81.8167 131.808 82.0914 131.926C82.3661 132.044 82.6015 132.122 82.8762 132.161L89.6647 141.736C89.3508 142.05 89.0761 142.442 88.8407 142.835C87.585 145.228 88.4875 148.171 90.8812 149.427C91.2736 149.584 91.6267 149.702 91.9407 149.819Z" fill="#FF0000"/>
<path d="M98.2184 125.137L93.2349 140.205C92.2932 140.205 91.3514 140.48 90.5274 140.99L84.0527 131.847C84.3667 131.651 84.6413 131.416 84.7983 131.102C85.0337 130.67 85.073 130.238 84.9945 129.807L96.4134 123.842C96.7666 124.313 97.1982 124.706 97.7476 124.98C97.9438 125.059 98.0222 125.098 98.2184 125.137Z" fill="#FF0000"/>
<path d="M117.054 128.433C117.015 128.394 116.975 128.355 116.936 128.355C115.523 127.609 113.836 128.08 113.091 129.493C112.502 130.631 112.541 131.886 113.405 132.75L109.559 140.637C108.696 140.637 107.911 141.068 107.479 141.893C107.362 142.167 107.283 142.403 107.283 142.677C107.283 142.717 107.283 142.717 107.283 142.756C107.283 142.756 107.283 142.795 107.283 142.834V142.952L98.0616 144.168C98.0616 144.09 97.9831 144.011 97.9831 143.933C97.6692 142.638 96.7667 141.461 95.4717 140.794C95.1578 140.637 94.8046 140.48 94.4907 140.401L99.3957 125.412C100.848 125.451 102.26 124.705 102.967 123.371C103.398 122.508 103.516 121.566 103.32 120.703L113.444 116.779C113.522 117.093 113.601 117.367 113.718 117.681L113.679 117.799C114.621 121.017 115.72 124.588 117.054 128.433Z" fill="#FF0000"/>
<path d="M117.211 128.63C117.211 128.63 117.133 128.669 117.093 128.669C117.054 128.591 117.054 128.512 117.015 128.473C117.093 128.512 117.172 128.591 117.211 128.63Z" fill="#FF0000"/>
<path d="M98.1401 145.071C98.1401 145.856 97.9831 146.641 97.5907 147.386C97.316 147.857 97.0021 148.289 96.6097 148.681L96.5312 148.603C96.8844 148.289 97.1983 147.857 97.473 147.386C97.8654 146.641 98.0224 145.856 97.9831 145.111L98.1401 145.071Z" fill="#FF0000"/>
<path d="M109.952 140.912C109.873 140.912 109.795 140.912 109.755 140.873C109.795 140.912 109.873 140.912 109.952 140.912Z" fill="#FF0000"/>
<path d="M110.815 141.344C110.855 141.344 110.855 141.344 110.815 141.344C110.895 141.384 110.855 141.344 110.815 141.344Z" fill="#FF0000"/>
<path d="M99.3955 95.393C99.9056 93.7841 99.9449 92.7247 99.9449 92.7247C99.8272 92.9601 99.7094 93.1171 99.5525 93.274C98.1791 94.7259 96.0993 93.1171 96.0993 93.1171C96.1386 92.9993 96.1778 92.9209 96.2171 92.8031C97.4727 89.3108 96.2171 85.4652 96.2171 85.4652C96.1778 88.2513 94.569 89.0361 94.569 89.0361C95.0399 86.6032 93.3525 83.9741 93.3525 83.9741C93.1956 86.7994 92.0184 90.1348 91.0374 92.45C90.2918 94.255 89.6247 95.4715 89.6247 95.4715C88.4867 94.5689 87.7019 93.431 87.1918 92.1753C85.2298 87.5057 86.8779 81.502 86.8779 81.502C85.3083 82.169 84.7197 86.1716 84.7197 86.1716C82.9146 82.0513 85.9754 76.1261 85.9754 76.1261C77.7742 82.2868 80.1286 90.8411 80.1286 90.8411C77.0286 88.369 76.2831 82.1298 76.2831 82.1298C75.8514 84.4057 75.8122 86.5247 76.0868 88.4082C76.1653 88.9184 76.2438 89.4285 76.3615 89.9386C77.4602 94.6474 80.2463 97.9436 82.0906 99.6702C82.5222 100.063 82.9146 100.416 83.2286 100.651L83.621 101.122L78.7944 101.985C78.8337 102.025 78.8729 102.025 78.9121 102.064C78.8729 102.064 78.8337 102.025 78.7944 102.025C77.9704 101.671 77.1463 101.279 76.3615 100.769C76.3615 100.769 76.3223 100.769 76.3223 100.73C75.8514 100.455 75.4198 100.102 74.9881 99.7487C74.321 98.8069 73.4185 97.3942 73.1046 96.0993C73.1046 96.0993 75.6944 98.5322 80.1286 98.9638C80.1286 98.9638 67.0224 87.6627 76.2046 76.7147C76.2046 76.7147 76.6362 80.9918 78.4805 82.4437C78.4805 82.4437 78.0096 76.7147 83.2678 73.7324C88.526 70.7109 90.1741 65.2173 90.1741 65.2173C90.1741 65.2173 91.8614 69.9261 88.526 78.4412C85.9754 87.4272 90.2133 90.9589 90.2133 90.9589C90.2133 90.9589 91.5867 89.6639 92.2146 84.7981C92.8424 79.9324 95.7462 78.0488 95.7462 78.0488C95.7462 78.0488 94.412 80.6779 97.0804 84.4842C99.7094 88.2513 98.9246 90.2918 98.9246 90.2918C98.9246 90.2918 101.397 87.9374 101.828 86.6032C101.907 86.4855 102.495 91.5867 99.3955 95.393Z" fill="#F19825"/>
<path d="M103.438 94.2552C103.359 94.4514 100.416 100.22 96.296 100.73C97.9833 98.8071 98.925 96.8843 99.3959 95.3932C102.496 91.6261 101.868 86.5249 101.868 86.5249C101.436 87.8591 98.9643 90.2135 98.9643 90.2135C98.9643 90.2135 99.7491 88.2122 97.12 84.4059C94.4909 80.6389 95.7858 77.9705 95.7858 77.9705C95.7858 77.9705 92.882 79.8541 92.2542 84.7198C91.6264 89.5856 90.253 90.8806 90.253 90.8806C90.253 90.8806 86.015 87.3097 88.5656 78.3629C91.901 69.8478 90.2137 65.139 90.2137 65.139C90.2137 65.139 88.5656 70.6719 83.3074 73.6541C78.0493 76.6756 78.5201 82.3654 78.5201 82.3654C76.6366 80.8743 76.2442 76.6364 76.2442 76.6364C67.1012 87.5844 80.1682 98.8856 80.1682 98.8856C75.7341 98.4539 73.1442 96.021 73.1442 96.021C73.4582 97.3159 74.3214 98.7286 75.0278 99.6704C72.9088 97.9046 71.0645 95.3932 70.0835 91.7046C70.0835 91.7046 72.281 95.1577 77.4607 96.6489C77.4607 96.6489 63.2557 83.6604 78.0885 67.2972C78.01 67.4934 75.8126 72.7516 78.3632 76.8326C78.3632 76.8326 79.2265 71.5351 84.8771 66.3162C89.939 60.9403 87.7023 50.0708 87.6239 49.7568C87.8593 49.9923 97.2377 59.8808 93.1567 71.9275C88.9973 84.1705 89.4289 84.9553 90.2137 88.3299C90.2137 88.3299 89.1935 75.2237 102.025 68.9061C101.868 69.1415 94.7656 78.6376 99.3959 87.7021C99.3959 87.7021 101.711 86.054 102.26 81.4237C102.26 81.4237 105.557 87.3882 99.4744 96.3742C99.6706 96.3349 101.593 95.7856 103.438 94.2552Z" fill="#F91B17"/>
<path d="M99.9845 92.7251C99.9845 92.7251 99.9453 93.7846 99.4351 95.3934C98.9643 96.8845 98.0225 98.8073 96.3352 100.73C96.3352 100.73 96.5706 99.5921 96.806 98.3364C96.806 98.3364 94.844 99.7491 94.3732 99.9453C94.4124 99.8668 95.0402 98.8073 95.3149 97.3554C95.4326 96.7668 95.4719 96.139 95.3934 95.4719C95.3934 95.4719 94.8833 97.0415 93.9023 97.6301L92.9213 97.7871C92.7251 97.7478 92.4896 97.6301 92.2542 97.4731C92.2542 97.4731 92.2149 97.6693 92.1365 97.9048C91.8225 98.7288 90.9985 100.22 89.1934 98.4149C88.9188 98.1402 88.6048 97.7871 88.2909 97.3554C88.2909 97.3554 84.6023 100.534 82.2087 90.4491C82.2087 90.4491 81.0315 92.8428 82.9935 96.7276C82.9935 96.7276 81.6593 96.3744 81.1884 95.5111C81.2277 95.6288 81.7378 97.4731 83.1897 99.4351C83.5429 99.906 83.9353 100.416 84.3669 100.887L84.4454 100.966C85.2694 101.829 86.2504 102.614 87.5061 103.281C87.5061 103.281 87.5453 103.281 87.5453 103.32C87.6238 103.359 87.6631 103.398 87.7416 103.398H87.7808C87.5846 103.398 87.3099 103.438 86.9567 103.438C86.9175 103.438 86.839 103.438 86.7998 103.438C85.2694 103.438 82.4834 103.281 79.5796 102.221C79.3834 102.143 79.2264 102.103 79.0302 102.025C78.991 102.025 78.9517 101.986 78.9125 101.947L82.8758 101.24L83.7391 101.083L83.3467 100.612C83.0327 100.377 82.6796 100.063 82.2087 99.6313C80.1682 97.7478 76.9505 93.9415 76.2049 88.4086C75.9303 86.5251 75.9695 84.4454 76.4011 82.1302C76.4011 82.1302 77.1467 88.3694 80.2467 90.8415C80.2467 90.8415 77.8923 82.2872 86.0935 76.1265C86.0935 76.1265 83.0327 82.0517 84.8378 86.172C84.8378 86.172 85.4264 82.1695 86.996 81.5024C86.996 81.5024 85.3479 87.5454 87.3099 92.1757C87.82 93.4314 88.6048 94.5694 89.7428 95.4719C89.7428 95.4719 90.3706 94.2554 91.1555 92.4504C92.1365 90.096 93.2744 86.7998 93.4706 83.9745C93.4706 83.9745 95.1187 86.6036 94.6871 89.0365C94.6871 89.0365 96.2959 88.2909 96.3352 85.4656C96.3352 85.4656 97.5908 89.3112 96.3352 92.8035C96.2959 92.9213 96.2567 92.9997 96.2174 93.1175C96.2174 93.1175 98.2972 94.7263 99.6706 93.2744C99.7098 93.1175 99.8668 92.9213 99.9845 92.7251Z" fill="#F9D81C"/>
</svg>
